<?xml version="1.0" standalone="no"?>
<!DOCTYPE svg PUBLIC "-//W3C//DTD SVG 20010904//EN"
 "http://www.w3.org/TR/2001/REC-SVG-20010904/DTD/svg10.dtd">
<svg version="1.0" xmlns="http://www.w3.org/2000/svg"
 width="300.000000pt" height="300.000000pt" viewBox="0 0 300.000000 300.000000"
 preserveAspectRatio="xMidYMid meet">
<metadata>
Created by potrace 1.14, written by Peter Selinger 2001-2017
</metadata>
<g transform="translate(0.000000,300.000000) scale(0.100000,-0.100000)"
fill="#000000" stroke="none">
<path d="M1090 2671 c-43 -15 -109 -75 -114 -103 -1 -7 -5 -19 -10 -26 -7 -12
-14 -93 -16 -178 0 -20 -4 -21 -107 -20 -107 1 -212 -20 -222 -45 -1 -6 -14
-21 -27 -34 -31 -31 -37 -61 -38 -175 l-1 -95 -132 0 c-73 1 -133 -2 -133 -6
0 -3 -17 -9 -38 -12 -42 -7 -102 -61 -110 -99 -7 -34 -14 -1398 -7 -1435 7
-39 72 -112 106 -118 25 -6 981 -6 1084 -1 33 2 80 9 105 17 25 7 50 13 55 14
6 0 16 6 23 13 8 7 17 10 22 7 5 -3 11 -1 15 5 3 5 15 10 27 10 11 0 38 14 59
31 21 17 39 28 39 24 0 -8 44 19 70 41 75 66 120 112 120 122 0 7 5 12 10 12
6 0 10 7 10 15 0 8 4 15 9 15 6 0 25 30 43 67 18 38 35 70 38 73 3 3 16 46 30
95 21 75 25 117 28 249 3 156 0 181 -32 301 -18 63 -80 200 -97 210 -5 4 -7
11 -4 16 4 5 0 9 -8 9 -8 0 -20 12 -27 28 -12 28 -140 142 -159 142 -6 0 -11
3 -11 8 0 8 -67 43 -130 67 -25 9 -50 21 -55 25 -10 8 -117 30 -175 35 -14 1
-25 3 -25 5 0 6 -120 10 -350 12 l-250 3 -3 87 c-4 128 -27 121 375 115 l328
-5 130 -32 c72 -17 135 -35 140 -40 6 -4 33 -16 60 -26 166 -62 337 -212 421
-369 15 -27 33 -54 40 -58 8 -4 14 -17 14 -27 0 -11 11 -50 26 -87 14 -37 27
-81 30 -98 3 -16 8 -41 10 -55 25 -123 24 -404 -2 -548 -13 -75 -61 -203 -95
-257 -15 -22 -29 -50 -33 -62 -4 -11 -13 -24 -21 -26 -16 -7 -46 -66 -47 -93
-1 -36 21 -73 47 -80 32 -8 73 9 82 33 7 18 15 30 43 62 8 9 23 32 32 51 9 19
24 46 32 60 94 159 141 392 134 653 -4 127 -10 172 -36 278 -18 70 -40 144
-49 165 -9 22 -17 41 -18 44 -4 19 -51 110 -57 110 -5 0 -8 6 -8 14 0 8 -12
28 -26 45 -14 17 -22 31 -17 31 4 0 0 5 -9 11 -10 5 -18 15 -18 21 0 23 -167
182 -202 194 -10 3 -18 9 -18 15 0 5 -15 15 -32 22 -18 8 -39 21 -47 30 -7 10
-19 17 -26 17 -7 0 -33 11 -58 25 -24 14 -69 32 -98 41 -30 8 -69 22 -87 30
-53 24 -267 53 -492 67 l-45 2 -3 72 c-2 63 0 75 19 94 20 20 27 21 208 17
126 -4 208 -10 253 -22 37 -9 71 -16 75 -15 4 1 10 0 13 -1 12 -4 38 -11 80
-19 25 -5 63 -15 85 -22 22 -7 42 -13 45 -14 22 -7 52 -19 90 -38 24 -12 48
-21 52 -20 4 2 8 -1 8 -5 0 -4 10 -9 22 -9 13 -1 27 -8 33 -15 5 -8 30 -24 55
-37 24 -13 57 -34 73 -47 16 -13 32 -24 35 -24 4 -1 34 -25 67 -55 33 -30 63
-55 67 -55 5 0 8 -6 8 -14 0 -8 14 -24 30 -36 17 -12 30 -28 30 -35 0 -8 9
-20 20 -28 10 -7 24 -24 30 -38 6 -13 19 -37 30 -54 57 -88 134 -269 149 -355
5 -25 16 -77 25 -117 38 -174 38 -483 0 -655 -9 -40 -20 -95 -26 -123 -5 -27
-13 -54 -18 -60 -4 -5 -13 -28 -20 -50 -7 -22 -28 -70 -48 -107 -32 -60 -35
-71 -26 -105 8 -35 12 -38 52 -41 31 -3 49 1 62 13 38 34 114 210 143 330 1 6
6 16 10 22 5 7 6 13 3 13 -3 0 -1 12 5 28 39 98 43 661 7 797 -6 22 -12 45
-13 50 -2 6 -10 32 -19 58 -9 26 -16 58 -16 70 0 13 -4 27 -8 32 -5 6 -19 37
-32 70 -32 81 -92 195 -132 251 -18 26 -37 53 -43 62 -43 68 -240 257 -286
274 -11 4 -22 14 -25 22 -3 8 -19 18 -35 21 -16 4 -29 10 -29 15 0 4 -13 13
-30 20 -16 7 -30 17 -30 23 0 6 -3 8 -6 5 -3 -4 -36 7 -72 24 -37 16 -76 33
-87 38 -11 4 -38 15 -60 24 -37 15 -104 33 -150 41 -11 2 -22 4 -25 5 -3 1
-13 2 -22 1 -10 -1 -18 2 -18 7 0 5 -6 9 -12 10 -7 1 -47 6 -88 12 -205 28
-454 33 -520 11z m218 -835 c68 -9 212 -56 262 -85 80 -46 144 -99 188 -155
23 -30 42 -59 42 -65 0 -5 13 -34 29 -63 15 -29 31 -75 35 -103 4 -27 10 -68
13 -90 16 -119 -7 -394 -35 -415 -12 -9 -42 -71 -42 -87 0 -8 -12 -28 -27 -43
-55 -56 -93 -101 -93 -111 0 -6 -4 -8 -8 -5 -5 3 -24 -8 -43 -25 -19 -16 -42
-29 -51 -29 -10 0 -18 -4 -18 -10 0 -11 -64 -40 -100 -46 -34 -4 -46 -8 -110
-29 -50 -16 -103 -18 -554 -21 -471 -3 -501 -2 -515 15 -14 16 -16 77 -15 507
2 593 -1 538 27 567 12 13 27 31 32 41 24 43 133 51 191 15 61 -37 64 -59 64
-444 0 -333 1 -346 20 -362 11 -10 20 -23 20 -30 0 -31 28 -34 305 -33 344 1
368 4 417 50 11 10 24 17 28 15 7 -4 65 49 105 96 17 21 42 74 48 104 1 6 5
12 9 15 29 22 29 222 -1 283 -11 23 -23 54 -26 68 -9 38 -88 123 -143 154 -93
53 -119 57 -387 62 -137 2 -255 6 -261 8 -7 2 -20 22 -30 44 -10 23 -21 41
-25 41 -4 0 -20 13 -35 28 -36 36 -128 73 -181 74 -44 0 -103 -10 -118 -22 -5
-4 -22 -10 -36 -14 -26 -6 -27 -5 -23 37 6 63 9 66 66 69 91 5 931 0 976 -6z
m-118 -408 c0 -4 7 -8 16 -8 24 0 124 -50 124 -62 0 -6 11 -20 25 -32 50 -43
60 -251 15 -320 -11 -17 -28 -43 -37 -58 -10 -16 -22 -28 -28 -28 -5 0 -32
-11 -60 -25 -49 -24 -56 -24 -277 -25 -126 0 -228 3 -229 8 -1 10 -1 523 0
544 1 14 23 16 226 15 124 0 225 -4 225 -9z"/>
</g>
</svg>
